<mxfile host="app.diagrams.net" modified="2023-10-11T09:03:42.858Z" agent="Mozilla/5.0 (X11; Linux x86_64; rv:109.0) Gecko/20100101 Firefox/117.0" version="22.0.4" etag="HOGUzpm63440W2i1U86z" type="github">
  <diagram name="第 1 页" id="ZDr5vjkKfLyj0icd-GqV">
    <mxGraphModel>
      <root>
        <mxCell id="0" />
        <mxCell id="1" parent="0" />
      </root>
    </mxGraphModel>
  </diagram>
</mxfile>
